<svg xmlns="http://www.w3.org/2000/svg" width="50" height="50" viewBox="0 0 50 50"><defs><style>.cls-1{fill:#999;}.cls-1,.cls-2,.cls-3,.cls-4,.cls-5{fill-rule:evenodd;}.cls-2{fill:#ba2a1a;}.cls-3{fill:#fff;}.cls-4{fill:#262626;}.cls-5{fill:#0a3f59;}</style></defs><title>fitness</title><g id="レイヤー_2" data-name="レイヤー 2"><g id="レイヤー_1-2" data-name="レイヤー 1"><g id="Badge20"><path class="cls-1" d="M25,39.18A14.18,14.18,0,1,0,10.82,25,14.21,14.21,0,0,0,25,39.18Z"/><path class="cls-2" d="M18.74,43.12a1.36,1.36,0,0,1-1,.16A.93.93,0,0,1,17.34,42c.24-.57.69-.93,1.06-.77a.65.65,0,0,1,.28.9l.93.39L20.24,41l-.82-.35-.24.24a1,1,0,0,0-.65-.69,2,2,0,0,0-2.41,1.24,1.88,1.88,0,0,0,1.05,2.66,2.32,2.32,0,0,0,1.89-.06l-.32-.93Zm2.31-1.85-.11.74.31.05-.38,2.43-.31,0-.12.74,3.14.49.23-1.46-.94-.14-.11.71L22,44.68l.38-2.44.3,0,.11-.74-1.77-.28Zm3.87.56.07.74.32,0,.14,1.4c.12,1.28.79,1.82,1.94,1.74s1.56-.76,1.43-2.1l-.14-1.37.31,0-.07-.73-1.68.16.08.75.3,0,.12,1.2c.09,1-.12,1.13-.46,1.16s-.59-.14-.68-1l-.12-1.22.31,0-.07-.72-1.8.17ZM31,45l2-.84c1-.42,1.29-.92,1-1.66a1,1,0,0,0-1.06-.6.79.79,0,0,0,.17-1c-.24-.57-.79-.73-1.66-.36l-1.95.82.28.67.31-.12,1,2.3-.3.13L31,45Zm.14-3.55.33-.14a.37.37,0,0,1,.5.24c.11.25.09.43-.18.55l-.32.13-.33-.78Zm1,2.28-.39-.91.41-.17a.45.45,0,0,1,.63.28.46.46,0,0,1-.23.63Z"/><path class="cls-2" d="M14.49,41.23a.76.76,0,1,0-.75-.76A.76.76,0,0,0,14.49,41.23Z"/><path class="cls-2" d="M35.51,41.23a.76.76,0,1,0-.75-.76A.76.76,0,0,0,35.51,41.23Z"/><polygon class="cls-3" points="25 13.99 25.29 22.28 27.29 14.23 25.85 22.4 29.48 14.94 26.37 22.63 31.47 16.09 26.83 22.97 33.18 17.64 27.21 23.39 34.53 19.5 27.5 23.89 35.47 21.6 27.68 24.43 35.95 23.85 27.74 25 35.95 26.15 27.68 25.57 35.47 28.4 27.5 26.11 34.53 30.5 27.21 26.61 33.18 32.37 26.83 27.03 31.47 33.91 26.37 27.37 29.48 35.06 25.85 27.6 27.29 35.77 25.29 27.72 25 36.01 24.71 27.72 22.71 35.77 24.15 27.6 20.52 35.06 23.63 27.37 18.53 33.91 23.17 27.03 16.82 32.37 22.79 26.61 15.47 30.5 22.5 26.11 14.53 28.4 22.32 25.57 14.05 26.15 22.26 25 14.05 23.85 22.32 24.43 14.53 21.6 22.5 23.89 15.47 19.5 22.79 23.39 16.82 17.64 23.17 22.97 18.53 16.09 23.63 22.63 20.52 14.94 24.15 22.4 22.71 14.23 24.71 22.28 25 13.99"/><path class="cls-3" d="M32.81,17.19a1.17,1.17,0,0,1,.85-1.1,4.09,4.09,0,0,1,3,0,4.17,4.17,0,0,1,3,0l.07,0a4,4,0,0,1,3.13.11A2.87,2.87,0,0,1,44,18.06v0a33.93,33.93,0,0,1,.32,3.64,2,2,0,0,1,.34.37,1.41,1.41,0,0,1,.17.32c.62.05,1,.25,1.09.91l.11.05.21,0a1,1,0,0,1,.71.26.93.93,0,0,1,.8.91h0v.55c0,.17,0,.34,0,.51s0,.33,0,.5,0,.3,0,.45a.92.92,0,0,1-.92.89h-.19a1,1,0,0,1-.71.28,1.15,1.15,0,0,1-.18.37,1,1,0,0,1-.93.37h-.16a2.59,2.59,0,0,1-.4.41c-.06,1.07-.16,2.15-.29,3.22v0c-.3,1.8-1.46,2.2-3.15,2a3,3,0,0,1-.77-.23l-.16-.07a3.51,3.51,0,0,1-2.13.3,3.1,3.1,0,0,1-1-.3,3.64,3.64,0,0,1-2.07.26,3,3,0,0,1-.76-.23,1.58,1.58,0,0,1-1-.73v0a9.68,9.68,0,0,1-.36-2.63c0-.65-.05-1.29-.06-1.94a1,1,0,0,1-.35-.37L32,27.9a2,2,0,0,0-.24,0,.92.92,0,0,1-.78-.54H19a.92.92,0,0,1-.78.54,2,2,0,0,0-.24,0l-.16.28a1,1,0,0,1-.35.37c0,.65,0,1.29-.06,1.94A9.68,9.68,0,0,1,17,33.12v0a1.58,1.58,0,0,1-1,.73,3,3,0,0,1-.76.23,3.64,3.64,0,0,1-2.07-.26,3.1,3.1,0,0,1-1,.3,3.51,3.51,0,0,1-2.13-.3l-.16.07a3,3,0,0,1-.77.23c-1.69.17-2.85-.23-3.15-2v0C6,31,5.85,29.92,5.79,28.85a2.59,2.59,0,0,1-.4-.41H5.23a1,1,0,0,1-.93-.37,1.15,1.15,0,0,1-.18-.37,1,1,0,0,1-.71-.28H3.22a.92.92,0,0,1-.92-.89c0-.15,0-.3,0-.45s0-.33,0-.5,0-.34,0-.51v-.55h0a.93.93,0,0,1,.8-.91,1,1,0,0,1,.71-.26l.21,0,.11-.05c.06-.6.4-.86,1.09-.91,0,0,.15-.28.17-.32a2,2,0,0,1,.34-.37A33.93,33.93,0,0,1,6,18.1v0a2.87,2.87,0,0,1,1.1-1.82,4,4,0,0,1,3.13-.11l.07,0a4.17,4.17,0,0,1,3,0,4.09,4.09,0,0,1,3,0,1.17,1.17,0,0,1,.85,1.1,14,14,0,0,1,.21,2.14c0,.82.06,1.64.07,2.46a.84.84,0,0,1,.35.37c.06.09.11.19.16.28l.24,0A1,1,0,0,1,19,23H31a1,1,0,0,1,.79-.54l.24,0c0-.09.1-.19.16-.28a.84.84,0,0,1,.35-.37c0-.82,0-1.64.07-2.46A14,14,0,0,1,32.81,17.19Z"/><path class="cls-4" d="M24.73,26.57H18.45a.2.2,0,0,1,0,.17l-.13.26a.19.19,0,0,1-.16.11l-.35.05-.34.06a5.9,5.9,0,0,1-.32.6.2.2,0,0,1-.17.11h-.26c0,.95,0,1.81-.07,2.53a7.44,7.44,0,0,1-.31,2.38v0a2.84,2.84,0,0,1-1.1.49c-1,.1-1.61-.06-1.93-.42a3.2,3.2,0,0,1-1.09.46c-1.08.11-1.65-.07-2-.47a3.06,3.06,0,0,1-1.09.47C7.42,33.56,7,33,6.83,32c-.14-1.22-.24-2.37-.31-3.52l-.17-.13A1.84,1.84,0,0,1,6,28a.84.84,0,0,1-.13-.29l-.53,0H5.19c-.15,0-.22,0-.29-.08a.21.21,0,0,1-.05-.15v-.59h0a.22.22,0,0,1-.31-.12l0-.08h-.2a.26.26,0,0,1-.13.25.21.21,0,0,1-.3-.12.69.69,0,0,1,0-.13H3.21a.16.16,0,0,1-.15-.16c0-.14,0-.28,0-.45s0-.31,0-.48v-1H3c0-.09.06-.17.14-.16H3.5a.25.25,0,0,1,.24-.25.26.26,0,0,1,.22.27h.2v-.07a.25.25,0,0,1,.24-.25.25.25,0,0,1,.22.27v.06h.23v-.72h0v-.09c0-.34,0-.36.4-.4l.34,0a1,1,0,0,1,.25-.25A.89.89,0,0,1,6,22.55a1.62,1.62,0,0,1,.37-.37l.1-.07a31.89,31.89,0,0,1,.32-3.89,2.1,2.1,0,0,1,.79-1.35,3.25,3.25,0,0,1,2.45,0,.64.64,0,0,1,.26.16c0,.07,0,.14,0,.21a1.33,1.33,0,0,1,.36-.35,3.25,3.25,0,0,1,2.45,0,.58.58,0,0,1,.26.16.34.34,0,0,1,0,.1,1.69,1.69,0,0,1,.32-.28,3.24,3.24,0,0,1,2.45,0c.28.09.36.25.34.46a12.24,12.24,0,0,1,.21,2.09c0,.85.07,1.89.08,3.05H17a.2.2,0,0,1,.18.11,4.92,4.92,0,0,1,.31.6l.34.06a2.09,2.09,0,0,0,.36,0,.2.2,0,0,1,.16.12l.13.26a.19.19,0,0,1,0,.18H31.54a.19.19,0,0,1,0-.18l.13-.26a.2.2,0,0,1,.16-.12,2.09,2.09,0,0,0,.36,0l.34-.06a4.92,4.92,0,0,1,.31-.6.2.2,0,0,1,.18-.11h.26c0-1.16,0-2.2.08-3.05a12.24,12.24,0,0,1,.21-2.09c0-.21.06-.37.34-.46a3.24,3.24,0,0,1,2.45,0,1.69,1.69,0,0,1,.32.28V17a.58.58,0,0,1,.26-.16,3.25,3.25,0,0,1,2.45,0,1.33,1.33,0,0,1,.36.35c0-.07,0-.14,0-.21a.64.64,0,0,1,.26-.16,3.25,3.25,0,0,1,2.45,0,2.1,2.1,0,0,1,.79,1.35,31.89,31.89,0,0,1,.32,3.89l.1.07a1.62,1.62,0,0,1,.37.37.89.89,0,0,1,.14.35,1,1,0,0,1,.25.25l.34,0c.41,0,.41.06.4.4v.09h0v.72h.23v-.06a.25.25,0,0,1,.22-.27.25.25,0,0,1,.24.25v.07H46a.26.26,0,0,1,.22-.27.25.25,0,0,1,.24.25h.33c.08,0,.14.07.14.16h0v1c0,.17,0,.33,0,.48s0,.31,0,.45a.16.16,0,0,1-.15.16h-.62a.69.69,0,0,1-.05.13.21.21,0,0,1-.3.12.26.26,0,0,1-.13-.25h-.2l0,.08a.22.22,0,0,1-.31.12h0v.59a.21.21,0,0,1,0,.15c-.07.09-.14.09-.29.08h-.13l-.53,0A.84.84,0,0,1,44,28a1.84,1.84,0,0,1-.37.37l-.17.13c-.07,1.15-.17,2.3-.31,3.52-.17,1-.59,1.58-2.32,1.41a3.06,3.06,0,0,1-1.09-.47c-.32.4-.89.58-2,.47a3.2,3.2,0,0,1-1.09-.46c-.32.36-.89.52-1.93.42a2.84,2.84,0,0,1-1.1-.49v0a7.44,7.44,0,0,1-.31-2.38c0-.72-.06-1.58-.07-2.53H33a.2.2,0,0,1-.17-.11,5.9,5.9,0,0,1-.32-.6l-.34-.06-.35-.05a.19.19,0,0,1-.16-.11l-.13-.26a.2.2,0,0,1,0-.17Zm0-2.43H19.6a.17.17,0,0,0-.16.17h0a.15.15,0,0,0,.15.12H30.4a.15.15,0,0,0,.15-.12h0a.17.17,0,0,0-.16-.17Zm-.23,2c-1.66,0-3.35.09-4.85.24l4.62,0h.46l5.62,0c-1.5-.15-4.1-.23-5.85-.24Zm16,.56c0,1.73.06,3.41-.07,5.09,1.12-1.33,2.24.6,2.69-2.59.08-1.33.12-2.68.13-4.06s0-2.57-.05-3.89c0-.42-.07-.86-.11-1.33-.27-1.12-.65-1.55-1.08-1.71h0a.63.63,0,0,0-.7-.55.68.68,0,0,0-.7.47l-.28-.05c0,.76.07,1.61.1,2.49.11,1.64.11,3.35.09,4.87,0,.43,0,.85,0,1.27Zm-.57-7.11a1.76,1.76,0,0,0-1-1.38h0a.63.63,0,0,0-.7-.55.67.67,0,0,0-.7.47l-.28-.05c0,.64.06,1.35.08,2.08.13,1.72.18,3.47.16,5.24,0,.73,0,1.47-.06,2.21,0,1.42,0,2.8-.08,4.19,1.41-1.67,2.23-.13,2.59-2.32q0-.43,0-.9c0-.65,0-1.33,0-2h0V25.7c-.12,3.67-1.5,1.11-2.41,3.1.15-5.87-.05-5.75-.14-10,.41,1.42,1.13,0,1.69.4A3.57,3.57,0,0,1,40,21.62c0-.76,0-1.45-.06-2.05Zm3.16,5.77c0-1.29.29-5.24-.87-6.11-.56-.42-1.28,1-1.69-.4.1,4.22.3,4.1.14,10,.93-2,1.44.19,2.14-1.57.27-.66.27-.57.28-1.89Zm-6.23-6a1.65,1.65,0,0,0-.92-1.16v0a.65.65,0,0,0-.71-.55.67.67,0,0,0-.69.48,1.5,1.5,0,0,1-.29-.06c.1,2.17.19,5.09.17,7.17,0,2.27.09,4.41-.07,6.56,1.38-1.63,2.17-.42,2.55-2.1q0-.51,0-1.08c0-.65,0-1.32,0-2a4,4,0,0,1-.23.64c-.7,1.75-1.21-.46-2.13,1.56.15-5.87-.05-5.74-.14-10,.41,1.42,1.13,0,1.68.39a2.93,2.93,0,0,1,.78,1.91c0-.62,0-1.18,0-1.67v-.11Zm8.3,5.41v1.51a4.2,4.2,0,0,0,.17-.72,6.45,6.45,0,0,0,.07-.79Zm.65,1.62a5.93,5.93,0,0,0,.19-.78,5.77,5.77,0,0,0,.06-.85h-.21a6.3,6.3,0,0,1-.07.89,5.35,5.35,0,0,1-.17.74Zm.71-1.64a7.31,7.31,0,0,1-.08,1,3.93,3.93,0,0,1-.15.68h.38c0-.1,0-.19,0-.29s0-.31,0-.48,0-.33,0-.5V24.7ZM33.6,27.93c0,.95,0,1.8.08,2.51,0,1.32.07,2.14.08,2.14s0-.82.08-2.14c0-1.06.08-2.43.09-4a11.33,11.33,0,0,1-.15,1.17.24.24,0,0,1,0,.08.2.2,0,0,1-.19.2Zm.34-3.9c0-1.81,0-3.44-.1-4.66-.08-1.84-.09-1.73-.16,0,0,.84-.07,1.88-.09,3a.19.19,0,0,1,.19.18c.07.46.13,1,.16,1.44Zm10.15-.34a.3.3,0,0,0,.08-.29.61.61,0,0,0-.24-.27l-.07,0V23a.43.43,0,0,0-.09-.26l0,0,.06.95.29,0Zm-.28.2V24l.41,0a.1.1,0,0,1,.1.12.1.1,0,0,1-.11.1l-.39,0V26.2l.32,0a.1.1,0,0,1,.11.11.1.1,0,0,1-.1.11l-.34,0v.2l.4,0h0c.25-.16.11-.9.08-1.15v-.35c0-.22.18-1-.08-1.15h-.09l-.35,0Zm0,2.95-.06,1,0,0a.43.43,0,0,0,.09-.26v-.09l.07-.05a.54.54,0,0,0,.24-.26c.06-.15.07-.24,0-.3l-.4,0ZM37.57,23c0,.26,0,.53,0,.79,0-.27,0-.53,0-.79Zm7,.47a.83.83,0,0,1,0,.22c.22.24.19.75.09,1.53.1.79.13,1.3-.09,1.54a.76.76,0,0,1,0,.45.54.54,0,0,1-.05.11h.28c.15,0,.15,0,.15-.1v-.14c0-.51,0-1.05,0-1.6s0-1.14,0-1.74a1.33,1.33,0,0,1,0-.2s0-.05-.11-.06Zm-.25,2.19a1.42,1.42,0,0,1,0-.82H43.9c0,.56,0,.84,0,.84Zm-12.37.88.08.16.28,0,.3.06c0-.1,0-.19,0-.28l-.07-.1-.34-.05H32a.14.14,0,0,1,0,.06l0,.13Zm.18-.46.18,0,.41.05A7.71,7.71,0,0,0,32.73,25c0-.12,0-.24,0-.35l-.21.07a2.56,2.56,0,0,1-.36.07c0,.12,0,.24,0,.35h0v0h0v.17a5.32,5.32,0,0,1-.07.74ZM33,24.38c0,.21,0,.42,0,.63a7.55,7.55,0,0,1-.1,1.41s.09.12.19.23h.46q.06-.64.06-1.32c0-.36,0-.72,0-1.09a.66.66,0,0,0-.42,0,.49.49,0,0,0-.2.13Zm.61-.28c0-.18,0-.35,0-.53h-.29a2,2,0,0,0-.26.54v0l0,.05v0a.81.81,0,0,1,.18-.1.84.84,0,0,1,.45,0Zm-.91.43,0-.25-.25,0-.31,0c0,.11,0,.22,0,.32l.34-.05.23-.09ZM32.07,24l.31,0,.23,0c0-.14-.07-.28-.11-.42l-.25,0-.29,0-.08.17H32l0,.17V24Zm-.47,2.15.07-.17h-.78l0,.17Zm.11-1.82v0s0-.1,0-.15h-.82a1.11,1.11,0,0,0,0,.17ZM32.86,27v0h0a2.18,2.18,0,0,0,.27.54h.34c0-.2.06-.4.09-.61H33a.19.19,0,0,1-.15-.06l0,.1Zm0-3.32c0-.07.1-.17.17-.31a.16.16,0,0,1,.15-.1h.34c0-.14,0-.28-.07-.42h-.33a2.67,2.67,0,0,0-.27.54h0a.18.18,0,0,1-.05.07l.06.21Zm-1.19,2.12a1.31,1.31,0,0,0,.1-.48v0c0-.13,0-.27,0-.42H31a5.67,5.67,0,0,1,0,.93Zm.08-1.15h-.81a.28.28,0,0,0,0,.09h.8v-.09ZM9.51,26.68c0-.42,0-.84,0-1.27,0-1.52,0-3.23.09-4.87,0-.88.07-1.73.1-2.49l-.28.05a.68.68,0,0,0-.7-.47.63.63,0,0,0-.7.55H8c-.43.16-.81.59-1.08,1.71,0,.47-.08.91-.11,1.33,0,1.32-.06,2.62,0,3.89s0,2.73.13,4.06c.45,3.19,1.57,1.26,2.69,2.59-.13-1.68-.09-3.36-.07-5.09Zm.57-7.11c0,.6-.05,1.29-.06,2.05a3.57,3.57,0,0,1,.83-2.39c.56-.42,1.28,1,1.69-.4-.09,4.22-.29,4.1-.14,10-.91-2-2.29.57-2.41-3.1v.82h0c0,.69,0,1.37,0,2q0,.46,0,.9c.36,2.19,1.18.65,2.59,2.32-.1-1.39-.09-2.77-.08-4.19,0-.74-.05-1.48-.06-2.21,0-1.77,0-3.52.16-5.24,0-.73.05-1.44.08-2.08l-.28.05a.67.67,0,0,0-.7-.47.63.63,0,0,0-.7.55h0a1.76,1.76,0,0,0-1,1.38ZM6.92,25.34c0,1.32,0,1.23.28,1.89.7,1.76,1.21-.45,2.14,1.57-.16-5.87,0-5.75.14-10-.41,1.42-1.14,0-1.69.4-1.16.87-.88,4.82-.87,6.11Zm6.23-6v.11c0,.49,0,1-.05,1.67a2.93,2.93,0,0,1,.78-1.91c.55-.42,1.27,1,1.68-.39-.09,4.22-.29,4.09-.14,10-.92-2-1.43.19-2.13-1.56a4,4,0,0,1-.23-.64c0,.68,0,1.35,0,2q0,.57,0,1.08c.38,1.68,1.17.47,2.55,2.1-.16-2.15-.05-4.29-.07-6.56,0-2.08.07-5,.17-7.17a1.5,1.5,0,0,1-.29.06.67.67,0,0,0-.69-.48.65.65,0,0,0-.71.55v0a1.65,1.65,0,0,0-.92,1.16Zm-8.3,5.41H4.61a6.45,6.45,0,0,0,.07.79,4.2,4.2,0,0,0,.17.72V24.72ZM4.2,26.34h.2a5.35,5.35,0,0,1-.17-.74,6.3,6.3,0,0,1-.07-.89H4a5.77,5.77,0,0,0,.06.85,5.93,5.93,0,0,0,.19.78ZM3.49,24.7H3.31v.37c0,.17,0,.34,0,.5s0,.33,0,.48,0,.19,0,.29h.38a3.93,3.93,0,0,1-.15-.68,7.31,7.31,0,0,1-.08-1ZM16.4,27.93h0a.2.2,0,0,1-.19-.2.24.24,0,0,1,0-.08,11.33,11.33,0,0,1-.15-1.17c0,1.53,0,2.9.09,4,.06,1.32.08,2.14.08,2.14s0-.82.08-2.14c0-.71.06-1.56.08-2.51ZM16.06,24c0-.48.09-1,.16-1.44a.19.19,0,0,1,.19-.18c0-1.16-.05-2.2-.09-3-.07-1.73-.08-1.84-.16,0-.05,1.22-.09,2.85-.1,4.66ZM5.91,23.69l.29,0,.06-.95,0,0a.43.43,0,0,0-.09.26v.09l-.07,0a.61.61,0,0,0-.24.27.3.3,0,0,0,.08.29Zm.28.2-.35,0H5.75c-.26.16-.1.93-.08,1.15v.35c0,.25-.17,1,.08,1.15h0l.4,0v-.2l-.34,0a.1.1,0,0,1-.1-.11.1.1,0,0,1,.11-.11l.32,0V24.25l-.39,0a.1.1,0,0,1-.11-.1.1.1,0,0,1,.1-.12l.41,0v-.13Zm0,2.95-.4,0c0,.06,0,.15,0,.3a.54.54,0,0,0,.24.26l.07.05v.09a.43.43,0,0,0,.09.26l0,0-.06-1ZM12.43,23c0,.26,0,.52,0,.79,0-.26,0-.53,0-.79Zm-6.95.47H5.27c-.11,0-.11,0-.11.06a1.33,1.33,0,0,1,0,.2c0,.6,0,1.18,0,1.74s0,1.09,0,1.6v.14c0,.1,0,.11.15.1h.28a.54.54,0,0,1,0-.11.76.76,0,0,1,0-.45c-.22-.24-.19-.75-.09-1.54-.1-.78-.13-1.29.09-1.53a.83.83,0,0,1,0-.22Zm.25,2.19h.36s0-.28,0-.84H5.73a1.62,1.62,0,0,1,0,.82Zm12.37.88h-.05l0-.13a.14.14,0,0,1,0-.06H17.8l-.34.05-.07.1c0,.09,0,.18.05.28l.3-.06.28,0,.08-.16Zm-.18-.46a5.32,5.32,0,0,1-.07-.74V25.2h0v0h0c0-.11,0-.23,0-.35a2.56,2.56,0,0,1-.36-.07l-.21-.07c0,.11,0,.23,0,.35a7.71,7.71,0,0,0,.06,1.16l.41-.05.18,0ZM17,24.38a.49.49,0,0,0-.2-.13.66.66,0,0,0-.42,0c0,.37,0,.73,0,1.09s0,.89.06,1.32h.46c.1-.11.15-.18.19-.23A7.55,7.55,0,0,1,17,25c0-.21,0-.42.05-.63Zm-.61-.28a.8.8,0,0,1,.44,0,.69.69,0,0,1,.19.1v0l0-.05v0a2,2,0,0,0-.26-.54h-.29c0,.18,0,.35-.05.53Zm.91.43.23.09.34.05c0-.1,0-.21,0-.32l-.31,0-.25,0,0,.25Zm.63-.51V24l0-.17h.16L18,23.61l-.29,0-.25,0c0,.14-.08.28-.11.42l.23,0,.31,0Zm.47,2.15h.74l0-.17h-.78l.07.17Zm-.11-1.82h.8c0-.06,0-.12,0-.17h-.82c0,.05,0,.1,0,.15v0ZM17.14,27l0-.1a.19.19,0,0,1-.15.06h-.54c0,.21.05.41.09.61h.34a2.18,2.18,0,0,0,.27-.54h0v0Zm0-3.32.06-.21a.18.18,0,0,1-.05-.07h0a2.67,2.67,0,0,0-.27-.54h-.33c0,.14-.05.28-.07.42h.34a.16.16,0,0,1,.15.1c.07.14.13.24.17.31Zm1.19,2.12h.75a5.67,5.67,0,0,1,0-.93h-.81c0,.15,0,.29,0,.42v0a1.31,1.31,0,0,0,.1.48Zm-.08-1.15v.09h.8a.28.28,0,0,0,0-.09Z"/><path class="cls-2" d="M10,35.33a1,1,0,0,1,.73.17c.17.17.25.37.06.55s-.77,0-1.26,0a2.8,2.8,0,0,0-1.16.08l-.53.54,2,2,.78-.79L10,37.22l-.3.29L9,36.87a2.67,2.67,0,0,1,1,.06c.64.13,1,.18,1.41-.24A1.14,1.14,0,0,0,11.4,35a1.75,1.75,0,0,0-1.41-.5l0,.81Zm1,4.53c-.62-.61-.62-1.49.28-2.39a1.62,1.62,0,0,1,2.35-.28c.72.71.52,1.58-.29,2.39s-1.68.94-2.34.28Zm.56-.57c-.14-.15,0-.62.45-1.1s.9-.56,1-.42,0,.64-.44,1.07S11.68,39.46,11.51,39.29Z"/><path class="cls-2" d="M36.14,39l.2-.54,1.36,1.36-.37.37.49.48,1.47-1.46-.49-.49-.34.34L36.38,37l-.65.65a2.13,2.13,0,0,1-.16,1.12l.57.24Zm2.93-4.2.22.73a1.45,1.45,0,0,0-.72.35.73.73,0,0,0,0,1,1.1,1.1,0,0,1,.29-.67,1.14,1.14,0,0,1,1.68,0,1.3,1.3,0,0,1,0,1.87,1.49,1.49,0,0,1-2.22-.08c-.5-.47-1.34-1.57-.41-2.56a2.21,2.21,0,0,1,1.16-.58Zm.25,2a.42.42,0,0,1,.62,0,.45.45,0,0,1,0,.65.56.56,0,0,1-.77-.09A.77.77,0,0,1,39.32,36.8Z"/><path class="cls-1" d="M42.35,7.65a24.54,24.54,0,1,0-34.7,34.7,24.54,24.54,0,1,0,34.7-34.7ZM25,.84A24.17,24.17,0,1,1,7.92,7.92,24.09,24.09,0,0,1,25,.84Zm16.17,8A22.87,22.87,0,1,1,25,2.13a22.77,22.77,0,0,1,16.17,6.7ZM34.56,1.89A25.08,25.08,0,0,1,48.11,15.44a25.12,25.12,0,0,1,0,19.12A25.08,25.08,0,0,1,34.56,48.11a25.12,25.12,0,0,1-19.12,0A25.08,25.08,0,0,1,1.89,34.56a25.12,25.12,0,0,1,0-19.12A25.08,25.08,0,0,1,15.44,1.89a25.12,25.12,0,0,1,19.12,0Z"/><path class="cls-5" d="M11.48,13.61l1.1-1.26-1-.9-1.1,1.27-.66-.58,1.09-1.26-.35-.66L10,9.78,7.63,12.54l4.13,3.57,1.11-1.29-1.39-1.21Zm4.95-2-1.38,1L11.89,8.13l1.38-1,3.16,4.44Zm.43-4.83,1.5,3.8,1.58-.62-1.49-3.8.76-.3V5.09L19,4.46l-3.55,1.4.5,1.28.95-.38Zm7.59-.57-1-2.46-1.8.14.41,5.44,1.56-.12-.05-.68-.35-1.82h.13l1,2.45L26.15,9l-.41-5.44-1.57.12,0,.67.37,1.83Zm6.68,4,.37-1.31-1.88-.54.21-.72,1.61.46.37-1.31L30.2,6.3l.17-.58L32,6.18l.45-.6.19-.65-3.51-1L27.62,9.18l3.51,1Zm2.81-1.55a.94.94,0,0,1,.11-1l.62-1a.65.65,0,0,1,.94-.2L38.11,8l-.36.56-.61.45-1.41-.91-.13.21L36.31,10a1,1,0,0,1-.11,1l-.67,1a.65.65,0,0,1-.94.2l-2.5-1.6.74-1.15,1.63,1.05.2-.3-.72-1.63Zm4.41,3.29.23,1.76-.27.24L37,12.45l-1,.89L38,15.59a.66.66,0,0,0,1,.07l.93-.81a.93.93,0,0,0,.4-1L40,12.12l.19-.16,1.1,1.27L42,13l.51-.44-1.94-2.24a.66.66,0,0,0-1-.07l-.87.75A.93.93,0,0,0,38.35,11.92Z"/></g></g></g></svg>